<?xml version="1.0" encoding="utf-8"?>
<!-- Generator: Adobe Illustrator 16.0.0, SVG Export Plug-In . SVG Version: 6.00 Build 0)  -->
<!DOCTYPE svg PUBLIC "-//W3C//DTD SVG 1.1//EN" "http://www.w3.org/Graphics/SVG/1.1/DTD/svg11.dtd">
<svg version="1.1" id="Layer_1" xmlns="http://www.w3.org/2000/svg" xmlns:xlink="http://www.w3.org/1999/xlink" x="0px" y="0px"
	 width="553.285px" height="553.306px" viewBox="72.524 -38.99 553.285 553.306"
	 enable-background="new 72.524 -38.99 553.285 553.306" xml:space="preserve">
<g id="Layer_2">
</g>
<g id="Layer_1_1_" xmlns:mydata="http://www.w3.org/2000/svg">
	<g id="element-id-4378">
		<g id="element-id-6245">
			
				<linearGradient id="element-id-9580_1_" gradientUnits="userSpaceOnUse" x1="46.2695" y1="63.6611" x2="1027.5396" y2="63.6611" gradientTransform="matrix(1.1127 0 0 1.1127 21.0398 166.8268)">
				<stop  offset="0" style="stop-color:#2193B0"/>
				<stop  offset="1" style="stop-color:#6DD5ED"/>
			</linearGradient>
			<path id="element-id-9580" fill="url(#element-id-9580_1_)" d="M625.695,245.871l0.064-2.766l0.036-2.761l0.014-2.658v-0.062
				l-0.014-2.763l-0.041-2.766l-0.064-2.766l-0.091-2.763l-0.123-2.764l-0.146-2.763l-0.174-2.761l-0.2-2.759l-0.233-2.756
				l-0.251-2.754l-0.283-2.752l-0.315-2.749l-0.343-2.747l-0.365-2.74l-0.393-2.74l-0.42-2.735l-0.457-2.731l-0.475-2.724
				l-0.507-2.72l-0.534-2.718l-0.563-2.713l-0.589-2.701l-0.616-2.699l-0.64-2.692l-0.672-2.686l-0.698-2.676l-0.729-2.672
				l-0.751-2.663l-0.783-2.653l-0.804-2.644l-0.834-2.641l-0.858-2.63l-0.886-2.622l-0.916-2.612l-0.938-2.601l-0.964-2.592
				l-0.991-2.585l-1.016-2.571l-1.041-2.563l-1.049-2.512l-1.091-2.539l-1.112-2.532l-1.14-2.519l-1.165-2.508l-1.188-2.498
				l-1.215-2.484l-1.237-2.473l-1.265-2.461l-1.288-2.45l-1.313-2.434l-1.336-2.425l-1.36-2.407l-1.389-2.398l-1.409-2.379
				l-1.434-2.368l-1.459-2.354l-1.479-2.333l-1.508-2.325l-1.529-2.307l-1.554-2.292l-1.575-2.274l-1.599-2.258l-1.621-2.242
				l-1.645-2.227l-1.667-2.21l-1.685-2.19l-1.713-2.176l-1.73-2.156l-1.757-2.142l-1.773-2.122l-1.795-2.103l-1.818-2.085
				l-1.836-2.066L553.5,51.14l-1.872-2.032l-1.898-2.009l-1.915-1.991l-1.923-1.964l-1.128-1.133l-1.962-1.948l-1.984-1.925
				l-2-1.909l-2.023-1.889l-2.037-1.868l-2.058-1.847l-2.075-1.827l-2.092-1.809l-2.114-1.786l-2.126-1.763l-2.149-1.747
				l-2.164-1.719l-2.186-1.704l-2.199-1.676l-2.215-1.658l-2.233-1.635l-2.249-1.612l-2.264-1.589l-2.283-1.566l-2.297-1.539
				l-2.315-1.521l-2.327-1.498l-2.345-1.47l-2.361-1.448l-2.37-1.425l-2.389-1.397l-2.402-1.375l-2.416-1.352l-2.43-1.324
				l-2.438-1.302l-2.457-1.274l-2.465-1.251l-2.481-1.229l-2.491-1.201l-2.501-1.178l-2.512-1.156l-2.525-1.123l-2.525-1.099
				l-1.466-0.628l-2.554-1.064l-2.564-1.037l-2.573-1.014l-2.583-0.991l-2.592-0.964l-2.603-0.937l-2.612-0.913l-2.619-0.886
				l-2.631-0.858l-2.638-0.831l-2.648-0.806l-2.658-0.779l-2.658-0.751l-2.674-0.728l-2.679-0.694l-2.683-0.671l-2.695-0.644
				l-2.696-0.617l-2.708-0.584l-2.706-0.562l-2.718-0.53l-2.722-0.507l-2.727-0.479l-2.729-0.445l-2.733-0.423l-2.74-0.393
				l-2.743-0.365l-2.744-0.34l-2.75-0.308l-2.754-0.286l-2.754-0.253l-2.754-0.23l-2.758-0.199l-2.759-0.174l-2.763-0.144
				l-2.759-0.121l-2.766-0.091l-2.765-0.066l-2.764-0.039l-2.717-0.009l-2.766,0.009l-2.766,0.041l-2.763,0.068l-2.764,0.091
				l-2.763,0.124l-2.763,0.146l-2.764,0.173l-2.754,0.204l-2.761,0.23l-2.751,0.253l-2.754,0.283l-2.75,0.311l-2.744,0.34
				l-2.743,0.365l-2.739,0.397l-2.734,0.42l-2.73,0.452l-2.725,0.479l-2.722,0.507l-2.718,0.534L291.459-33l-2.701,0.589
				l-2.699,0.619l-2.691,0.642l-2.684,0.671l-2.679,0.699l-2.669,0.729l-2.668,0.749l-2.653,0.781l-2.646,0.809l-2.637,0.833
				l-2.631,0.859l-2.622,0.886l-2.612,0.916l-2.603,0.936l-2.59,0.964l-2.585,0.991l-2.571,1.014l-2.562,1.041l-2.513,1.048
				l-2.539,1.087l-2.534,1.117l-2.517,1.139l-2.51,1.165l-2.496,1.19l-2.486,1.212l-2.474,1.24l-2.461,1.265l-2.45,1.288
				l-2.437,1.311l-2.421,1.338l-2.411,1.361l-2.396,1.386l-2.382,1.409l-2.365,1.435l-2.354,1.461l-2.336,1.48l-2.315,1.507
				l-2.312,1.53l-2.288,1.553l-2.276,1.573l-2.259,1.601l-2.242,1.622l-2.227,1.646l-2.208,1.667l-2.19,1.688l-2.174,1.708
				l-2.157,1.735l-2.139,1.754l-2.123,1.772l-2.103,1.799l-2.086,1.817l-2.066,1.836l-2.05,1.857l-2.028,1.877l-2.011,1.897
				l-1.992,1.914l-1.965,1.923l-1.132,1.128l-1.945,1.964l-1.927,1.982l-1.909,2.005l-1.886,2.017l-1.869,2.042l-1.85,2.055
				l-1.828,2.076l-1.808,2.096l-1.786,2.11l-1.766,2.133l-1.744,2.146l-1.724,2.165l-1.702,2.183l-1.68,2.202l-1.655,2.215
				l-1.634,2.233l-1.611,2.247l-1.588,2.268l-1.566,2.284l-1.542,2.299l-1.52,2.311L115.5,89.42l-1.471,2.343l-1.448,2.358
				l-1.421,2.375l-1.4,2.386l-1.375,2.4l-1.351,2.414l-1.327,2.432l-1.301,2.441l-1.278,2.452l-1.25,2.466l-1.228,2.482
				l-1.202,2.487l-1.178,2.507l-1.153,2.512l-1.127,2.525l-1.1,2.523l-0.626,1.471l-1.065,2.549l-1.039,2.564l-1.015,2.571
				l-0.989,2.585l-0.963,2.589l-0.938,2.605l-0.912,2.61l-0.884,2.621l-0.86,2.631l-0.833,2.64l-0.806,2.645l-0.778,2.658
				l-0.754,2.667l-0.724,2.667l-0.698,2.681l-0.67,2.686l-0.644,2.69l-0.614,2.698l-0.587,2.704l-0.562,2.713l-0.533,2.718
				l-0.504,2.722l-0.478,2.722l-0.449,2.731l-0.421,2.735l-0.393,2.735l-0.366,2.747l-0.339,2.745l-0.31,2.749l-0.283,2.752
				l-0.255,2.754l-0.226,2.759l-0.202,2.754l-0.172,2.763l-0.145,2.763l-0.12,2.764l-0.09,2.763l-0.066,2.763l-0.04,2.764
				l-0.011,2.72l0.014,2.765l0.04,2.764l0.066,2.765l0.093,2.764l0.119,2.763l0.147,2.764l0.176,2.761l0.201,2.758l0.228,2.759
				l0.256,2.754l0.286,2.752l0.311,2.751l0.339,2.747l0.367,2.743l0.396,2.74l0.423,2.732l0.448,2.733l0.479,2.725l0.506,2.72
				l0.533,2.718l0.561,2.708l0.589,2.703l0.618,2.699l0.643,2.692l0.672,2.684l0.698,2.679l0.728,2.669l0.753,2.665l0.779,2.655
				l0.806,2.649l0.833,2.637l0.861,2.631l0.886,2.619l0.913,2.612l0.937,2.599l0.966,2.592l0.989,2.583l1.015,2.573l1.04,2.563
				l1.048,2.507l1.089,2.542l1.115,2.532l1.138,2.519l1.165,2.505l1.188,2.498l1.213,2.487l1.239,2.476l1.263,2.461l1.288,2.448
				l1.312,2.437l1.338,2.421l1.363,2.411l1.386,2.393l1.41,2.384l1.434,2.364l1.459,2.352l1.482,2.341l1.506,2.32l1.529,2.309
				l1.553,2.288l1.576,2.276l1.599,2.259l1.624,2.244l1.643,2.227l1.668,2.208l1.688,2.192l1.713,2.174l1.732,2.158l1.754,2.137
				l1.775,2.124l1.795,2.104l1.817,2.084l1.835,2.067l1.856,2.05l1.878,2.03l1.896,2.012l1.915,1.994l1.925,1.966l1.124,1.13
				l1.964,1.943l1.983,1.928l2.002,1.904l2.02,1.889l2.039,1.867l2.056,1.853l2.076,1.824l2.096,1.807l2.108,1.788l2.131,1.767
				l2.146,1.743l2.166,1.724l2.183,1.701l2.2,1.679l2.215,1.655l2.235,1.635l2.247,1.61l2.268,1.594l2.279,1.562l2.302,1.544
				l2.313,1.519l2.329,1.496l2.345,1.47l2.356,1.446l2.375,1.422l2.387,1.4l2.399,1.377l2.416,1.347l2.43,1.327l2.443,1.302
				l2.452,1.281l2.467,1.249l2.479,1.226l2.491,1.204l2.501,1.176l2.517,1.153l2.525,1.128l2.521,1.099l1.471,0.63l2.549,1.062
				l2.564,1.037l2.573,1.021l2.585,0.986l2.59,0.959l2.605,0.938l2.612,0.916l2.619,0.886l2.63,0.856l2.638,0.831l2.649,0.809
				l2.655,0.776l2.663,0.754l2.671,0.726l2.682,0.699l2.683,0.669l2.694,0.642l2.697,0.616l2.703,0.587l2.711,0.563l2.718,0.531
				l2.722,0.505l2.724,0.479l2.731,0.445l2.733,0.425l2.74,0.393l2.742,0.363l2.745,0.34l2.749,0.311l2.754,0.283l2.752,0.256
				l2.756,0.229l2.759,0.199l2.759,0.173l2.763,0.146l2.759,0.121l2.765,0.089l2.766,0.066l2.764,0.041l2.717,0.014l2.766-0.014
				l2.766-0.041l2.763-0.066l2.763-0.091l2.764-0.124l2.763-0.146l2.763-0.174l2.754-0.203l2.761-0.23l2.752-0.254l2.754-0.285
				l2.749-0.311l2.745-0.343l2.742-0.363l2.74-0.393l2.733-0.425l2.731-0.45l2.724-0.477l2.723-0.507l2.717-0.535l2.713-0.563
				l2.701-0.587l2.699-0.616l2.692-0.645l2.684-0.669l2.679-0.701l2.669-0.726l2.667-0.752l2.653-0.783l2.649-0.804l2.635-0.836
				l2.631-0.858l2.621-0.891l2.612-0.911l2.604-0.938l2.59-0.961l2.585-0.993l2.571-1.015l2.562-1.041l2.51-1.048l2.541-1.09
				l2.533-1.114l2.519-1.139l2.51-1.163l2.495-1.189l2.487-1.215l2.473-1.237l2.462-1.263l2.448-1.288l2.438-1.315l2.421-1.336
				l2.411-1.361l2.393-1.386l2.385-1.411l2.365-1.434l2.354-1.457l2.336-1.482l2.32-1.509l2.311-1.528l2.288-1.553l2.274-1.578
				l2.261-1.601l2.242-1.619l2.229-1.642l2.206-1.672l2.192-1.688l2.174-1.708l2.155-1.732l2.14-1.757l2.122-1.773l2.103-1.798
				l2.085-1.817l2.069-1.834l2.048-1.856l2.03-1.879l2.01-1.897l1.995-1.914l1.964-1.925l1.133-1.126l1.941-1.961l1.932-1.987
				l1.904-2l1.886-2.019l1.873-2.039l1.845-2.056l1.827-2.078l1.809-2.096l1.783-2.11l1.766-2.128l1.746-2.148l1.725-2.168
				l1.701-2.183l1.678-2.199l1.658-2.215l1.635-2.23l1.612-2.252l1.59-2.268l1.563-2.283l1.544-2.298l1.519-2.311l1.498-2.329
				l1.471-2.343l1.447-2.363l1.421-2.373l1.402-2.386l1.374-2.398l1.35-2.418l1.327-2.428l1.302-2.44l1.276-2.455l1.249-2.466
				l1.229-2.48l1.201-2.491l1.178-2.5l1.151-2.515l1.13-2.523l1.099-2.522l0.628-1.471l1.064-2.553l1.039-2.563l1.016-2.573
				l0.986-2.581l0.964-2.594l0.938-2.601l0.916-2.612l0.884-2.619l0.858-2.631l0.831-2.638l0.809-2.648l0.776-2.66l0.753-2.661
				l0.727-2.676l0.696-2.677l0.672-2.685l0.642-2.69l0.616-2.699l0.585-2.706l0.562-2.706l0.534-2.717l0.507-2.723l0.476-2.726
				l0.447-2.731l0.425-2.731l0.393-2.74l0.365-2.744l0.338-2.745l0.311-2.752l0.283-2.751l0.256-2.759l0.229-2.756l0.196-2.757
				l0.178-2.758l0.142-2.766l0.124-2.761L625.695,245.871z M612.78,232.407l0.036,2.64l0.014,2.578v0.062l-0.014,2.597l-0.036,2.637
				l-0.064,2.638l-0.087,2.638l-0.114,2.635l-0.142,2.636l-0.164,2.633l-0.191,2.631l-0.218,2.628l-0.244,2.626l-0.273,2.621
				l-0.293,2.622l-0.324,2.617l-0.347,2.612l-0.377,2.607l-0.401,2.604l-0.428,2.605l-0.454,2.596l-0.481,2.59l-0.508,2.583
				l-0.534,2.58l-0.562,2.578l-0.585,2.566l-0.616,2.563l-0.64,2.56l-0.666,2.551l-0.69,2.546l-0.717,2.532l-0.744,2.53
				l-0.765,2.521l-0.793,2.512l-0.817,2.505l-0.845,2.498l-0.872,2.484l-0.896,2.484l-0.918,2.473l-0.945,2.462l-0.968,2.455
				l-0.994,2.443l-1.014,2.435l-0.587,1.379l-1.06,2.435l-1.075,2.406l-1.099,2.396l-1.123,2.389l-1.151,2.375l-1.169,2.363
				l-1.194,2.35l-1.217,2.338l-1.24,2.327l-1.268,2.313l-1.288,2.302l-1.311,2.288l-1.333,2.272l-1.356,2.263l-1.38,2.244
				l-1.401,2.233l-1.425,2.213l-1.448,2.206l-1.471,2.188l-1.491,2.174l-1.509,2.158l-1.537,2.142l-1.56,2.128l-1.576,2.108
				l-1.601,2.096l-1.623,2.078l-1.64,2.064l-1.662,2.046l-1.681,2.027l-1.706,2.013l-1.725,1.995l-1.744,1.982l-1.763,1.961
				l-1.783,1.943l-1.798,1.928l-1.822,1.909l-1.84,1.891l-1.856,1.879l-1.064,1.058l-1.894,1.856l-1.901,1.824l-1.921,1.812
				l-1.937,1.79l-1.959,1.77l-1.971,1.754l-1.989,1.73l-2.005,1.711l-2.022,1.694l-2.042,1.671l-2.055,1.649l-2.074,1.63
				l-2.091,1.607l-2.104,1.59l-2.119,1.562l-2.138,1.546l-2.15,1.521l-2.167,1.5l-2.184,1.479l-2.196,1.455l-2.213,1.434
				l-2.227,1.411l-2.238,1.389l-2.256,1.365l-2.265,1.341l-2.284,1.322l-2.295,1.294l-2.304,1.274l-2.325,1.252l-2.333,1.222
				l-2.343,1.208l-2.361,1.178l-2.37,1.155l-2.38,1.133l-2.393,1.11l-2.402,1.089l-2.416,1.06l-2.426,1.039l-2.395,1l-2.446,0.993
				l-2.452,0.969l-2.467,0.938l-2.471,0.92l-2.484,0.896l-2.484,0.872l-2.498,0.843l-2.503,0.819l-2.514,0.795l-2.521,0.768
				L422,491.163l-2.537,0.715l-2.544,0.689l-2.549,0.667l-2.558,0.637l-2.562,0.614l-2.569,0.585l-2.573,0.56l-2.583,0.534
				l-2.587,0.507l-2.59,0.481l-2.599,0.455l-2.599,0.429l-2.603,0.402l-2.61,0.374l-2.612,0.348l-2.619,0.324l-2.617,0.297
				l-2.621,0.267l-2.626,0.244l-2.631,0.22l-2.631,0.191l-2.631,0.162l-2.635,0.142l-2.635,0.114l-2.636,0.089l-2.635,0.064
				l-2.64,0.034l-2.64,0.014l-2.599-0.014l-2.641-0.034l-2.635-0.064l-2.635-0.089l-2.636-0.114l-2.635-0.142l-2.633-0.164
				l-2.631-0.191l-2.631-0.218l-2.623-0.244l-2.626-0.271l-2.617-0.297l-2.617-0.322l-2.612-0.347l-2.61-0.377l-2.605-0.402
				l-2.603-0.427l-2.592-0.459l-2.592-0.477l-2.585-0.508l-2.581-0.534l-2.573-0.56l-2.573-0.584l-2.563-0.617l-2.558-0.639
				l-2.548-0.662l-2.544-0.692l-2.535-0.717l-2.529-0.744l-2.523-0.768l-2.515-0.793l-2.507-0.817l-2.494-0.845l-2.491-0.87
				l-2.481-0.895l-2.472-0.921l-2.464-0.942l-2.452-0.969l-2.441-0.993l-2.438-1.017l-1.375-0.589l-2.434-1.06l-2.407-1.075
				l-2.397-1.099l-2.387-1.123l-2.377-1.149l-2.361-1.169l-2.352-1.196l-2.338-1.217l-2.327-1.24l-2.313-1.265l-2.3-1.286
				l-2.285-1.311l-2.277-1.334l-2.261-1.356l-2.244-1.377l-2.233-1.404l-2.217-1.423l-2.199-1.447l-2.19-1.471l-2.171-1.491
				l-2.16-1.512l-2.143-1.534l-2.123-1.56l-2.112-1.576l-2.095-1.601l-2.077-1.623l-2.063-1.643l-2.048-1.662l-2.027-1.683
				l-2.014-1.704l-1.997-1.722l-1.979-1.744l-1.961-1.766l-1.947-1.783l-1.924-1.802l-1.91-1.817l-1.895-1.841l-1.874-1.856
				l-1.056-1.063l-1.856-1.896l-1.829-1.902l-1.81-1.918l-1.791-1.938l-1.771-1.955l-1.751-1.976l-1.733-1.988l-1.712-2.005
				l-1.692-2.023l-1.672-2.037l-1.651-2.055l-1.629-2.076l-1.608-2.09l-1.589-2.103l-1.566-2.117l-1.543-2.137l-1.522-2.151
				l-1.501-2.169l-1.478-2.184l-1.457-2.196l-1.435-2.211l-1.408-2.227l-1.39-2.237l-1.366-2.257l-1.342-2.267l-1.319-2.286
				l-1.295-2.295l-1.271-2.304l-1.251-2.323l-1.228-2.333l-1.205-2.343l-1.178-2.361l-1.158-2.373l-1.131-2.379l-1.111-2.391
				l-1.085-2.402l-1.064-2.416l-1.038-2.426l-0.999-2.393l-0.991-2.445l-0.968-2.455l-0.942-2.464l-0.919-2.471l-0.894-2.484
				l-0.869-2.484l-0.845-2.499l-0.821-2.507l-0.792-2.512l-0.767-2.519l-0.744-2.53l-0.716-2.537l-0.689-2.546l-0.666-2.551
				l-0.64-2.556l-0.612-2.562l-0.584-2.574l-0.562-2.573l-0.533-2.583l-0.507-2.584l-0.482-2.592l-0.453-2.595l-0.428-2.599
				l-0.4-2.605l-0.376-2.607l-0.348-2.61l-0.323-2.619l-0.297-2.617l-0.269-2.621l-0.243-2.626l-0.218-2.628l-0.192-2.631
				l-0.166-2.633l-0.141-2.633l-0.105-2.64l-0.089-2.641l-0.063-2.637l-0.038-2.64l-0.011-2.638l0.011-2.597l0.038-2.64l0.063-2.635
				l0.089-2.638l0.114-2.635l0.141-2.634l0.166-2.633l0.191-2.63l0.218-2.631l0.243-2.626l0.269-2.624l0.297-2.621l0.325-2.617
				l0.348-2.612l0.377-2.61l0.399-2.603l0.431-2.604l0.453-2.594l0.482-2.59l0.508-2.587l0.535-2.581l0.559-2.578l0.584-2.566
				l0.613-2.562l0.639-2.558l0.663-2.554l0.689-2.541l0.718-2.537l0.741-2.53l0.77-2.521l0.796-2.512l0.817-2.508l0.845-2.493
				l0.87-2.489l0.893-2.48l0.919-2.471l0.944-2.466l0.968-2.452l0.991-2.443l1.018-2.437l0.587-1.38l1.06-2.43l1.075-2.409
				l1.1-2.395l1.125-2.387l1.146-2.377l1.171-2.363l1.193-2.353l1.218-2.338l1.241-2.325l1.265-2.313l1.287-2.302l1.312-2.286
				l1.333-2.274l1.356-2.256l1.379-2.25l1.403-2.231l1.424-2.22l1.447-2.199l1.469-2.19l1.492-2.172l1.513-2.158l1.536-2.142
				l1.557-2.126l1.579-2.112l1.599-2.096l1.621-2.078l1.642-2.06l1.663-2.046l1.683-2.028l1.705-2.014l1.723-1.996l1.745-1.978
				l1.763-1.961l1.782-1.946l1.803-1.925l1.818-1.909l1.839-1.895l1.856-1.873l1.063-1.06l1.896-1.854l1.901-1.827l1.919-1.809
				l1.939-1.79l1.952-1.772l1.974-1.754l1.99-1.731l2.006-1.712l2.023-1.69l2.037-1.671l2.055-1.649l2.074-1.632l2.087-1.61
				l2.105-1.587l2.121-1.566l2.135-1.543l2.153-1.523l2.167-1.5l2.184-1.478l2.196-1.455l2.211-1.432l2.224-1.414l2.243-1.386
				l2.256-1.365l2.265-1.343l2.284-1.32l2.292-1.295l2.307-1.272l2.32-1.253l2.338-1.227l2.343-1.203l2.357-1.178l2.372-1.16
				l2.382-1.13l2.391-1.11l2.404-1.087l2.416-1.062l2.426-1.039l2.391-1l2.445-0.991l2.452-0.968l2.467-0.946l2.471-0.918
				l2.478-0.895l2.491-0.87l2.498-0.845l2.503-0.82l2.514-0.794l2.521-0.768l2.53-0.742l2.537-0.72l2.541-0.689l2.551-0.665
				l2.558-0.639l2.563-0.614l2.571-0.585l2.575-0.559l2.58-0.537l2.585-0.507l2.592-0.48l2.592-0.454l2.604-0.432l2.605-0.397
				l2.61-0.375l2.612-0.349l2.612-0.322l2.621-0.297l2.626-0.271l2.626-0.245l2.626-0.214l2.631-0.194l2.636-0.162l2.63-0.142
				l2.636-0.114l2.64-0.089l2.635-0.062l2.64-0.039l2.636-0.011l2.599,0.014l2.64,0.037l2.635,0.062l2.636,0.089l2.64,0.114
				l2.63,0.142l2.636,0.165l2.631,0.192l2.626,0.217l2.626,0.244l2.626,0.27l2.621,0.297l2.617,0.324l2.61,0.347l2.609,0.375
				l2.604,0.402l2.604,0.429l2.594,0.457l2.59,0.479l2.587,0.507l2.578,0.534l2.578,0.562l2.573,0.584l2.558,0.614l2.56,0.637
				l2.551,0.667l2.544,0.685l2.535,0.72l2.529,0.742l2.521,0.768l2.514,0.794l2.506,0.82l2.498,0.845l2.486,0.87l2.482,0.895
				l2.471,0.918l2.462,0.946l2.452,0.968l2.445,0.991l2.435,1.019l1.382,0.584l2.43,1.06l2.408,1.073l2.4,1.103l2.384,1.125
				l2.375,1.145l2.361,1.171l2.352,1.196l2.339,1.217l2.324,1.24l2.315,1.265l2.302,1.288l2.288,1.308l2.274,1.336l2.259,1.356
				l2.244,1.379l2.233,1.402l2.22,1.425l2.201,1.448l2.188,1.471l2.172,1.489l2.158,1.517l2.142,1.534l2.126,1.558l2.11,1.576
				l2.094,1.603l2.078,1.621l2.064,1.64l2.046,1.662l2.027,1.686l2.015,1.704l1.995,1.722l1.98,1.745l1.961,1.763l1.945,1.781
				l1.928,1.802l1.909,1.82l1.893,1.84l1.875,1.859l1.055,1.06l1.859,1.897l1.826,1.902l1.809,1.918l1.793,1.939l1.771,1.955
				l1.752,1.971l1.73,1.991l1.713,2.005l1.689,2.023l1.672,2.041l1.651,2.055l1.628,2.074l1.609,2.089l1.588,2.103l1.562,2.122
				l1.546,2.137l1.523,2.151l1.498,2.167l1.479,2.181l1.457,2.199l1.432,2.21l1.408,2.224l1.389,2.24l1.365,2.256l1.343,2.267
				l1.32,2.281l1.297,2.295l1.27,2.307l1.252,2.322l1.226,2.333l1.201,2.345l1.181,2.357l1.155,2.37l1.133,2.382l1.11,2.396
				l1.087,2.402l1.062,2.413l1.041,2.423l0.996,2.397l0.993,2.443l0.968,2.453l0.943,2.466l0.92,2.471l0.896,2.48l0.872,2.491
				l0.843,2.498l0.82,2.505l0.794,2.517l0.768,2.521l0.742,2.528l0.715,2.537l0.689,2.544l0.667,2.548l0.637,2.558l0.614,2.563
				l0.585,2.57l0.56,2.574l0.531,2.582l0.508,2.585l0.483,2.59l0.452,2.594l0.43,2.604l0.401,2.604l0.375,2.612l0.352,2.609
				l0.319,2.615l0.297,2.621l0.27,2.624l0.242,2.626l0.22,2.628l0.191,2.631l0.164,2.633l0.14,2.633l0.116,2.636l0.087,2.637
				L612.78,232.407z"/>
			
				<linearGradient id="element-id-50972_1_" gradientUnits="userSpaceOnUse" x1="46.2637" y1="63.6558" x2="1027.535" y2="63.6558" gradientTransform="matrix(1.1127 0 0 1.1127 21.0398 166.8268)">
				<stop  offset="0" style="stop-color:#2193B0"/>
				<stop  offset="1" style="stop-color:#6DD5ED"/>
			</linearGradient>
			<path id="element-id-50972" fill="url(#element-id-50972_1_)" d="M110.098,180.192c-4.414,18.435-6.752,37.676-6.752,57.465
				c0,19.788,2.338,39.031,6.752,57.469c3.246,4.471,6.927,8.767,11.044,12.886c19.362,19.364,42.674,29.095,69.939,29.192
				c0.135-0.009,0.271-0.014,0.406-0.014c24.491,0,46.054-8.004,64.681-24.004c0.313-0.27,0.648-0.51,1.005-0.715
				c0.358-0.206,0.732-0.377,1.121-0.512c0.391-0.137,0.788-0.237,1.196-0.295c0.406-0.062,0.82-0.084,1.227-0.068
				c0.415,0.017,0.822,0.068,1.222,0.162c0.404,0.089,0.792,0.222,1.169,0.386c0.379,0.165,0.737,0.361,1.08,0.597
				c0.338,0.232,0.653,0.493,0.945,0.787l8.067,8.079c0.293,0.293,0.551,0.605,0.783,0.945c0.233,0.341,0.435,0.699,0.594,1.076
				c0.165,0.379,0.293,0.765,0.386,1.169c0.092,0.399,0.145,0.809,0.158,1.22s-0.005,0.821-0.066,1.226
				c-0.06,0.411-0.16,0.809-0.295,1.197c-0.137,0.388-0.306,0.763-0.511,1.118c-0.206,0.359-0.441,0.69-0.711,1.005
				c-15.954,18.586-23.933,40.177-23.933,64.761c0.004,27.437,9.736,50.886,29.196,70.346c4.115,4.119,8.417,7.801,12.893,11.05
				c18.438,4.416,37.679,6.755,57.472,6.755c19.784,0,39.022-2.336,57.451-6.748c4.478-3.254,8.775-6.938,12.899-11.057
				c19.359-19.366,29.087-42.682,29.183-69.946c-0.007-0.137-0.011-0.27-0.011-0.406c0-24.475-7.997-46.031-23.998-64.672
				c-0.269-0.311-0.507-0.642-0.712-1c-0.208-0.36-0.379-0.73-0.512-1.119c-0.137-0.39-0.232-0.792-0.297-1.196
				c-0.06-0.408-0.084-0.817-0.068-1.226c0.019-0.409,0.07-0.822,0.162-1.222c0.092-0.4,0.219-0.791,0.386-1.167
				c0.165-0.377,0.361-0.735,0.596-1.078c0.231-0.34,0.491-0.655,0.784-0.947l8.085-8.091c0.293-0.292,0.61-0.553,0.95-0.785
				c0.341-0.235,0.699-0.435,1.076-0.597c0.374-0.164,0.767-0.294,1.169-0.386c0.401-0.094,0.808-0.146,1.219-0.162
				c0.416-0.019,0.825,0.009,1.231,0.068c0.408,0.06,0.806,0.158,1.194,0.295c0.393,0.139,0.763,0.306,1.121,0.516
				c0.358,0.206,0.694,0.441,1.007,0.711c18.564,15.959,40.158,23.938,64.765,23.938c27.438,0.002,50.889-9.726,70.346-29.184
				c4.115-4.114,7.794-8.407,11.039-12.881c4.416-18.438,6.759-37.683,6.759-57.476c0-19.785-2.338-39.025-6.75-57.453
				c-3.247-4.479-6.931-8.776-11.05-12.896c-19.325-19.33-42.585-29.063-69.782-29.199c-0.191,0.019-0.383,0.027-0.572,0.027
				c-24.5,0-46.057,7.997-64.674,23.986c-0.313,0.27-0.646,0.507-1.007,0.712c-0.356,0.208-0.731,0.38-1.119,0.512
				c-0.389,0.138-0.786,0.233-1.194,0.297c-0.404,0.062-0.815,0.085-1.227,0.068c-0.413-0.014-0.822-0.068-1.222-0.159
				c-0.399-0.092-0.792-0.22-1.169-0.389c-0.379-0.164-0.737-0.36-1.08-0.594c-0.34-0.232-0.653-0.493-0.945-0.785l-8.086-8.086
				c-0.292-0.292-0.555-0.605-0.785-0.948c-0.231-0.34-0.432-0.698-0.597-1.077c-0.164-0.375-0.292-0.768-0.386-1.169
				c-0.091-0.397-0.148-0.807-0.162-1.22c-0.014-0.411,0.01-0.822,0.071-1.229c0.057-0.406,0.157-0.807,0.297-1.194
				c0.135-0.391,0.304-0.763,0.511-1.121c0.208-0.354,0.443-0.689,0.711-1.003c15.945-18.549,23.917-40.132,23.917-64.758
				c0.005-27.43-9.719-50.876-29.174-70.341c-4.12-4.115-8.42-7.805-12.897-11.052c-18.428-4.412-37.669-6.748-57.448-6.748
				c-19.784,0-39.023,2.336-57.456,6.748c-4.478,3.252-8.775,6.938-12.895,11.057c-19.46,19.46-29.19,42.909-29.19,70.341
				c0.007,24.497,8.006,46.059,23.998,64.683c0.271,0.314,0.507,0.646,0.712,1.007c0.206,0.354,0.375,0.729,0.512,1.116
				c0.137,0.394,0.232,0.791,0.297,1.197c0.06,0.406,0.082,0.814,0.068,1.226c-0.019,0.414-0.068,0.82-0.162,1.222
				c-0.092,0.4-0.222,0.79-0.384,1.17c-0.164,0.379-0.363,0.735-0.594,1.077c-0.23,0.338-0.495,0.653-0.787,0.945l-8.065,8.079
				c-0.293,0.293-0.607,0.555-0.948,0.786c-0.34,0.232-0.698,0.434-1.077,0.598c-0.377,0.165-0.766,0.293-1.17,0.389
				c-0.401,0.091-0.808,0.144-1.222,0.16c-0.411,0.018-0.821-0.007-1.229-0.069c-0.406-0.062-0.808-0.157-1.196-0.297
				c-0.389-0.135-0.761-0.306-1.119-0.511c-0.355-0.206-0.691-0.443-1.002-0.711c-18.586-15.957-40.174-23.938-64.768-23.938
				c-27.436,0-50.883,9.732-70.346,29.197C117.027,171.422,113.344,175.717,110.098,180.192L110.098,180.192z M366.156,105.602
				c-0.338-0.809-0.502-1.653-0.502-2.525c0-0.877,0.164-1.715,0.502-2.523c0.333-0.811,0.809-1.523,1.43-2.142l0.005-0.007
				c5.083-5.067,7.624-11.205,7.624-18.418c0-8.687-2.172-15.199-6.513-19.538c-4.346-4.343-10.862-6.52-19.549-6.52
				c-17.354,0-26.041,8.68-26.06,26.043c0,7.198,2.546,13.34,7.641,18.428l106.832,106.854L456,186.826
				c13.947-13.937,30.747-20.956,50.391-21.065c0.146-0.007,0.292-0.012,0.438-0.012c19.853,0,36.801,7.021,50.844,21.067
				c14.035,14.044,21.055,30.997,21.055,50.854c0,19.854-7.02,36.801-21.063,50.84c-14.039,14.039-30.987,21.061-50.835,21.061
				c-19.855,0-36.806-7.02-50.843-21.061c-0.309-0.304-0.582-0.638-0.819-0.998c-0.245-0.36-0.445-0.74-0.614-1.14
				c-0.162-0.399-0.293-0.813-0.373-1.237c-0.086-0.425-0.128-0.852-0.128-1.288c0-0.432,0.042-0.861,0.128-1.285
				c0.083-0.423,0.206-0.839,0.373-1.235c0.166-0.4,0.369-0.781,0.609-1.14c0.239-0.358,0.512-0.694,0.819-1.003l23.087-23.093
				c0.304-0.309,0.637-0.58,0.998-0.822c0.355-0.242,0.739-0.443,1.137-0.609c0.402-0.169,0.813-0.293,1.237-0.375
				c0.425-0.087,0.853-0.13,1.288-0.13c0.432,0,0.863,0.043,1.286,0.128c0.425,0.084,0.838,0.21,1.239,0.372
				c0.397,0.167,0.776,0.37,1.138,0.614c0.358,0.24,0.694,0.512,1,0.819l0,0c5.095,5.093,11.237,7.641,18.433,7.641
				c17.363,0,26.046-8.69,26.046-26.059c0-17.236-8.545-25.928-25.631-26.069c-0.128,0.005-0.255,0.01-0.388,0.01
				c-7.188,0-13.341,2.546-18.46,7.638L381.56,326.067l18.417,18.424c13.938,13.936,20.96,30.733,21.069,50.393
				c0.01,0.144,0.019,0.289,0.019,0.436c0,19.853-7.023,36.801-21.074,50.843c-14.041,14.039-30.989,21.059-50.843,21.059
				c-19.857,0-36.81-7.022-50.854-21.065c-14.039-14.039-21.059-30.985-21.059-50.836c0-19.859,7.024-36.81,21.063-50.845
				c0.306-0.306,0.642-0.58,1-0.819c0.36-0.237,0.74-0.44,1.142-0.607c0.397-0.167,0.813-0.292,1.235-0.375
				c0.427-0.087,0.854-0.128,1.286-0.128c0.436,0,0.86,0.041,1.287,0.128c0.428,0.083,0.836,0.208,1.238,0.375
				c0.401,0.164,0.778,0.37,1.14,0.607c0.358,0.239,0.691,0.514,0.997,0.819l23.096,23.084c0.306,0.309,0.578,0.638,0.822,1
				c0.239,0.359,0.44,0.738,0.607,1.138c0.164,0.399,0.292,0.815,0.379,1.235c0.082,0.427,0.123,0.854,0.123,1.288
				c0.003,0.434-0.041,0.86-0.123,1.285c-0.084,0.427-0.21,0.838-0.374,1.235c-0.165,0.402-0.368,0.781-0.607,1.142
				c-0.242,0.361-0.512,0.692-0.818,1.001c-5.087,5.097-7.631,11.243-7.631,18.437c0,17.375,8.684,26.06,26.055,26.06
				c17.236,0,25.922-8.547,26.064-25.644c-0.008-0.131-0.01-0.259-0.01-0.389c0-7.175-2.548-13.329-7.645-18.462L260.751,270.071
				l-18.424,18.421c-13.959,13.937-30.761,20.956-50.408,21.063c-0.146,0.009-0.288,0.016-0.434,0.016
				c-19.861,0-36.81-7.024-50.85-21.074c-14.034-14.041-21.052-30.992-21.052-50.854c0-19.855,7.018-36.797,21.058-50.836
				c14.037-14.037,30.987-21.057,50.844-21.057c19.846,0,36.796,7.016,50.852,21.048c0.306,0.306,0.582,0.635,0.819,1
				c0.244,0.356,0.445,0.737,0.614,1.137c0.167,0.397,0.292,0.813,0.372,1.235c0.087,0.425,0.131,0.856,0.133,1.288
				c0,0.432-0.041,0.863-0.128,1.286c-0.085,0.425-0.21,0.838-0.372,1.239c-0.167,0.4-0.37,0.781-0.609,1.14
				c-0.242,0.361-0.512,0.694-0.82,1l-0.002,0.003l-23.098,23.106c-0.304,0.306-0.638,0.582-0.998,0.822
				c-0.358,0.239-0.74,0.443-1.14,0.609c-0.399,0.167-0.811,0.293-1.235,0.372c-0.425,0.087-0.854,0.131-1.288,0.131
				c-0.432,0-0.863-0.044-1.285-0.126c-0.428-0.087-0.838-0.21-1.235-0.374c-0.402-0.167-0.781-0.37-1.143-0.607
				c-0.36-0.245-0.693-0.517-1-0.822c-5.099-5.095-11.241-7.641-18.435-7.641c-17.37,0-26.059,8.682-26.059,26.043
				c0,17.245,8.552,25.938,25.65,26.082c0.132-0.009,0.255-0.011,0.388-0.011c7.184,0,13.336-2.551,18.446-7.65l106.841-106.807
				l-18.438-18.43c-14.034-14.053-21.054-30.997-21.059-50.833v-0.035c0.005-19.844,7.024-36.783,21.059-50.815
				C312.356,15.104,329.3,8.086,349.158,8.086c19.854,0,36.806,7.02,50.849,21.059c14.039,14.039,21.055,30.985,21.055,50.84
				c0,19.857-7.016,36.805-21.05,50.849c-0.302,0.304-0.638,0.58-1,0.817c-0.356,0.242-0.74,0.443-1.138,0.612
				c-0.397,0.164-0.813,0.292-1.235,0.375c-0.427,0.084-0.854,0.128-1.29,0.128c-0.432,0-0.858-0.042-1.283-0.128
				c-0.425-0.083-0.841-0.208-1.242-0.375c-0.397-0.164-0.776-0.37-1.138-0.607c-0.355-0.242-0.691-0.514-1-0.822l0,0
				l-23.104-23.095C366.966,107.12,366.489,106.41,366.156,105.602L366.156,105.602z"/>
			
				<linearGradient id="element-id-23495_1_" gradientUnits="userSpaceOnUse" x1="46.2661" y1="-78.5757" x2="1027.5291" y2="-78.5757" gradientTransform="matrix(1.1127 0 0 1.1127 21.0398 166.8268)">
				<stop  offset="0" style="stop-color:#2193B0"/>
				<stop  offset="1" style="stop-color:#6DD5ED"/>
			</linearGradient>
			<path id="element-id-23495" fill="url(#element-id-23495_1_)" d="M439.786,147.102c19.474-14.652,41.619-22.04,66.44-22.156
				c0.201-0.019,0.397-0.03,0.604-0.03c27.822,0,52.022,8.833,72.597,26.489C554.55,85.022,501.788,32.26,435.401,7.388
				c17.656,20.575,26.484,44.768,26.475,72.588C461.875,105.152,454.514,127.527,439.786,147.102L439.786,147.102z"/>
			
				<linearGradient id="element-id-30517_1_" gradientUnits="userSpaceOnUse" x1="46.2603" y1="-78.5732" x2="1027.542" y2="-78.5732" gradientTransform="matrix(1.1127 0 0 1.1127 21.0398 166.8268)">
				<stop  offset="0" style="stop-color:#2193B0"/>
				<stop  offset="1" style="stop-color:#6DD5ED"/>
			</linearGradient>
			<path id="element-id-30517" fill="url(#element-id-30517_1_)" d="M258.575,146.997c-14.753-19.627-22.131-41.962-22.141-67.012
				c0-27.818,8.828-52.016,26.489-72.593c-66.382,24.874-119.139,77.634-144.017,144.012c20.573-17.656,44.77-26.486,72.586-26.486
				C216.616,124.918,238.978,132.277,258.575,146.997L258.575,146.997z"/>
			
				<linearGradient id="element-id-24711_1_" gradientUnits="userSpaceOnUse" x1="46.27" y1="63.6602" x2="1027.5127" y2="63.6602" gradientTransform="matrix(1.1127 0 0 1.1127 21.0398 166.8268)">
				<stop  offset="0" style="stop-color:#2193B0"/>
				<stop  offset="1" style="stop-color:#6DD5ED"/>
			</linearGradient>
			<path id="element-id-24711" fill="url(#element-id-24711_1_)" d="M349.127,293.626l55.967-55.951l-55.964-55.978l-55.96,55.957
				L349.127,293.626z"/>
			
				<linearGradient id="element-id-56294_1_" gradientUnits="userSpaceOnUse" x1="46.2642" y1="205.8828" x2="1027.53" y2="205.8828" gradientTransform="matrix(1.1127 0 0 1.1127 21.0398 166.8268)">
				<stop  offset="0" style="stop-color:#2193B0"/>
				<stop  offset="1" style="stop-color:#6DD5ED"/>
			</linearGradient>
			<path id="element-id-56294" fill="url(#element-id-56294_1_)" d="M191.915,350.38c-0.139,0.009-0.283,0.012-0.427,0.012
				c-27.818,0-52.013-8.823-72.583-26.478c24.875,66.373,77.623,119.122,143.993,143.998
				c-17.651-20.572-26.484-44.769-26.486-72.586c0-25.123,7.357-47.485,22.072-67.082
				C238.978,342.918,216.783,350.296,191.915,350.38L191.915,350.38z"/>
			
				<linearGradient id="element-id-90637_1_" gradientUnits="userSpaceOnUse" x1="46.2588" y1="205.8906" x2="1027.5403" y2="205.8906" gradientTransform="matrix(1.1127 0 0 1.1127 21.0398 166.8268)">
				<stop  offset="0" style="stop-color:#2193B0"/>
				<stop  offset="1" style="stop-color:#6DD5ED"/>
			</linearGradient>
			<path id="element-id-90637" fill="url(#element-id-90637_1_)" d="M461.89,395.319c0-0.142-0.005-0.285-0.015-0.427
				c-0.082-24.884-7.476-47.088-22.182-66.626c19.6,14.747,41.98,22.12,67.149,22.12c27.817,0.005,52.009-8.816,72.581-26.468
				c-24.879,66.382-77.64,119.133-144.023,144.005C453.059,447.347,461.89,423.146,461.89,395.319L461.89,395.319z"/>
		</g>
	</g>
</g>
</svg>
